<?xml version="1.0" encoding="UTF-8" standalone="no"?>
<!DOCTYPE svg PUBLIC "-//W3C//DTD SVG 1.1//EN"
 "http://www.w3.org/Graphics/SVG/1.1/DTD/svg11.dtd">
<!-- Generated by graphviz version 2.44.1 (20200629.0846)
 -->
<!-- Pages: 1 -->
<svg width="1264pt" height="548pt"
 viewBox="0.00 0.00 1264.19 548.00" xmlns="http://www.w3.org/2000/svg" xmlns:xlink="http://www.w3.org/1999/xlink">
<g id="graph0" class="graph" transform="scale(1 1) rotate(0) translate(4 544)">
<polygon fill="white" stroke="transparent" points="-4,4 -4,-544 1260.19,-544 1260.19,4 -4,4"/>
<!-- [root] data.template_file.zone_db_tpl -->
<g id="node1" class="node">
<title>[root] data.template_file.zone_db_tpl</title>
<polygon fill="none" stroke="black" points="1194.5,-180 1009.5,-180 1009.5,-144 1194.5,-144 1194.5,-180"/>
<text text-anchor="middle" x="1102" y="-158.3" font-family="Times,serif" font-size="14.00">data.template_file.zone_db_tpl</text>
</g>
<!-- [root] local.records -->
<g id="node6" class="node">
<title>[root] local.records</title>
<polygon fill="none" stroke="black" points="955,-108 875,-108 875,-72 961,-72 961,-102 955,-108"/>
<polyline fill="none" stroke="black" points="955,-108 955,-102 "/>
<polyline fill="none" stroke="black" points="961,-102 955,-102 "/>
<text text-anchor="middle" x="918" y="-86.3" font-family="Times,serif" font-size="14.00">local.records</text>
</g>
<!-- [root] data.template_file.zone_db_tpl&#45;&gt;[root] local.records -->
<g id="edge1" class="edge">
<title>[root] data.template_file.zone_db_tpl&#45;&gt;[root] local.records</title>
<path fill="none" stroke="black" d="M1056.99,-143.88C1030.91,-133.96 997.95,-121.42 970.67,-111.04"/>
<polygon fill="black" stroke="black" points="971.87,-107.75 961.28,-107.47 969.38,-114.29 971.87,-107.75"/>
</g>
<!-- [root] local.version -->
<g id="node8" class="node">
<title>[root] local.version</title>
<polygon fill="none" stroke="black" points="831,-108 751,-108 751,-72 837,-72 837,-102 831,-108"/>
<polyline fill="none" stroke="black" points="831,-108 831,-102 "/>
<polyline fill="none" stroke="black" points="837,-102 831,-102 "/>
<text text-anchor="middle" x="794" y="-86.3" font-family="Times,serif" font-size="14.00">local.version</text>
</g>
<!-- [root] data.template_file.zone_db_tpl&#45;&gt;[root] local.version -->
<g id="edge2" class="edge">
<title>[root] data.template_file.zone_db_tpl&#45;&gt;[root] local.version</title>
<path fill="none" stroke="black" d="M1025.16,-143.97C978.99,-133.68 919.1,-120.23 866,-108 859.84,-106.58 853.39,-105.08 846.98,-103.58"/>
<polygon fill="black" stroke="black" points="847.54,-100.12 837,-101.24 845.94,-106.93 847.54,-100.12"/>
</g>
<!-- [root] provider.template -->
<g id="node14" class="node">
<title>[root] provider.template</title>
<polygon fill="none" stroke="black" points="1102,-108 998.27,-90 1102,-72 1205.73,-90 1102,-108"/>
<text text-anchor="middle" x="1102" y="-86.3" font-family="Times,serif" font-size="14.00">provider.template</text>
</g>
<!-- [root] data.template_file.zone_db_tpl&#45;&gt;[root] provider.template -->
<g id="edge3" class="edge">
<title>[root] data.template_file.zone_db_tpl&#45;&gt;[root] provider.template</title>
<path fill="none" stroke="black" d="M1102,-143.7C1102,-135.98 1102,-126.71 1102,-118.11"/>
<polygon fill="black" stroke="black" points="1105.5,-118.1 1102,-108.1 1098.5,-118.1 1105.5,-118.1"/>
</g>
<!-- [root] local.bookmarks_service_url -->
<g id="node2" class="node">
<title>[root] local.bookmarks_service_url</title>
<polygon fill="none" stroke="black" points="168,-252 0,-252 0,-216 174,-216 174,-246 168,-252"/>
<polyline fill="none" stroke="black" points="168,-252 168,-246 "/>
<polyline fill="none" stroke="black" points="174,-246 168,-246 "/>
<text text-anchor="middle" x="87" y="-230.3" font-family="Times,serif" font-size="14.00">local.bookmarks_service_url</text>
</g>
<!-- [root] local.cleanup_payload -->
<g id="node3" class="node">
<title>[root] local.cleanup_payload</title>
<polygon fill="none" stroke="black" points="857,-324 725,-324 725,-288 863,-288 863,-318 857,-324"/>
<polyline fill="none" stroke="black" points="857,-324 857,-318 "/>
<polyline fill="none" stroke="black" points="863,-318 857,-318 "/>
<text text-anchor="middle" x="794" y="-302.3" font-family="Times,serif" font-size="14.00">local.cleanup_payload</text>
</g>
<!-- [root] local.cleanup_payload&#45;&gt;[root] local.version -->
<g id="edge4" class="edge">
<title>[root] local.cleanup_payload&#45;&gt;[root] local.version</title>
<path fill="none" stroke="black" d="M794,-287.85C794,-250.83 794,-163.18 794,-118.39"/>
<polygon fill="black" stroke="black" points="797.5,-118.23 794,-108.23 790.5,-118.23 797.5,-118.23"/>
</g>
<!-- [root] local.content_type -->
<g id="node4" class="node">
<title>[root] local.content_type</title>
<polygon fill="none" stroke="black" points="302,-252 192,-252 192,-216 308,-216 308,-246 302,-252"/>
<polyline fill="none" stroke="black" points="302,-252 302,-246 "/>
<polyline fill="none" stroke="black" points="308,-246 302,-246 "/>
<text text-anchor="middle" x="250" y="-230.3" font-family="Times,serif" font-size="14.00">local.content_type</text>
</g>
<!-- [root] local.entries -->
<g id="node5" class="node">
<title>[root] local.entries</title>
<polygon fill="none" stroke="black" points="852.5,-36 775.5,-36 775.5,0 858.5,0 858.5,-30 852.5,-36"/>
<polyline fill="none" stroke="black" points="852.5,-36 852.5,-30 "/>
<polyline fill="none" stroke="black" points="858.5,-30 852.5,-30 "/>
<text text-anchor="middle" x="817" y="-14.3" font-family="Times,serif" font-size="14.00">local.entries</text>
</g>
<!-- [root] local.records&#45;&gt;[root] local.entries -->
<g id="edge5" class="edge">
<title>[root] local.records&#45;&gt;[root] local.entries</title>
<path fill="none" stroke="black" d="M893.29,-71.88C880.33,-62.89 864.27,-51.76 850.23,-42.03"/>
<polygon fill="black" stroke="black" points="852.02,-39.01 841.8,-36.19 848.03,-44.76 852.02,-39.01"/>
</g>
<!-- [root] local.update_payloads -->
<g id="node7" class="node">
<title>[root] local.update_payloads</title>
<polygon fill="none" stroke="black" points="759.5,-180 628.5,-180 628.5,-144 765.5,-144 765.5,-174 759.5,-180"/>
<polyline fill="none" stroke="black" points="759.5,-180 759.5,-174 "/>
<polyline fill="none" stroke="black" points="765.5,-174 759.5,-174 "/>
<text text-anchor="middle" x="697" y="-158.3" font-family="Times,serif" font-size="14.00">local.update_payloads</text>
</g>
<!-- [root] local.update_payloads&#45;&gt;[root] local.entries -->
<g id="edge6" class="edge">
<title>[root] local.update_payloads&#45;&gt;[root] local.entries</title>
<path fill="none" stroke="black" d="M702.81,-143.8C709.88,-124.72 723.22,-93.76 742,-72 751.99,-60.43 765.01,-50.09 777.4,-41.68"/>
<polygon fill="black" stroke="black" points="779.37,-44.58 785.83,-36.18 775.54,-38.72 779.37,-44.58"/>
</g>
<!-- [root] local.update_payloads&#45;&gt;[root] local.version -->
<g id="edge7" class="edge">
<title>[root] local.update_payloads&#45;&gt;[root] local.version</title>
<path fill="none" stroke="black" d="M720.98,-143.7C733.31,-134.8 748.52,-123.82 761.85,-114.2"/>
<polygon fill="black" stroke="black" points="764.24,-116.79 770.3,-108.1 760.14,-111.12 764.24,-116.79"/>
</g>
<!-- [root] local_file.zone_db -->
<g id="node9" class="node">
<title>[root] local_file.zone_db</title>
<polygon fill="none" stroke="black" points="961,-252 845,-252 845,-216 961,-216 961,-252"/>
<text text-anchor="middle" x="903" y="-230.3" font-family="Times,serif" font-size="14.00">local_file.zone_db</text>
</g>
<!-- [root] local_file.zone_db&#45;&gt;[root] data.template_file.zone_db_tpl -->
<g id="edge8" class="edge">
<title>[root] local_file.zone_db&#45;&gt;[root] data.template_file.zone_db_tpl</title>
<path fill="none" stroke="black" d="M951.43,-215.97C979.23,-206.19 1014.34,-193.84 1043.65,-183.52"/>
<polygon fill="black" stroke="black" points="1045.08,-186.73 1053.36,-180.11 1042.76,-180.13 1045.08,-186.73"/>
</g>
<!-- [root] provider.local -->
<g id="node12" class="node">
<title>[root] provider.local</title>
<polygon fill="none" stroke="black" points="907,-180 822.38,-162 907,-144 991.62,-162 907,-180"/>
<text text-anchor="middle" x="907" y="-158.3" font-family="Times,serif" font-size="14.00">provider.local</text>
</g>
<!-- [root] local_file.zone_db&#45;&gt;[root] provider.local -->
<g id="edge9" class="edge">
<title>[root] local_file.zone_db&#45;&gt;[root] provider.local</title>
<path fill="none" stroke="black" d="M903.99,-215.7C904.43,-207.98 904.96,-198.71 905.45,-190.11"/>
<polygon fill="black" stroke="black" points="908.95,-190.29 906.02,-180.1 901.96,-189.89 908.95,-190.29"/>
</g>
<!-- [root] null_resource.bookmarks_cleanup -->
<g id="node10" class="node">
<title>[root] null_resource.bookmarks_cleanup</title>
<polygon fill="none" stroke="black" points="750.5,-396 547.5,-396 547.5,-360 750.5,-360 750.5,-396"/>
<text text-anchor="middle" x="649" y="-374.3" font-family="Times,serif" font-size="14.00">null_resource.bookmarks_cleanup</text>
</g>
<!-- [root] null_resource.bookmarks_cleanup&#45;&gt;[root] local.cleanup_payload -->
<g id="edge11" class="edge">
<title>[root] null_resource.bookmarks_cleanup&#45;&gt;[root] local.cleanup_payload</title>
<path fill="none" stroke="black" d="M684.47,-359.88C704.12,-350.39 728.72,-338.51 749.63,-328.42"/>
<polygon fill="black" stroke="black" points="751.16,-331.57 758.64,-324.07 748.12,-325.26 751.16,-331.57"/>
</g>
<!-- [root] null_resource.bookmarks_update -->
<g id="node11" class="node">
<title>[root] null_resource.bookmarks_update</title>
<polygon fill="none" stroke="black" points="706.5,-324 509.5,-324 509.5,-288 706.5,-288 706.5,-324"/>
<text text-anchor="middle" x="608" y="-302.3" font-family="Times,serif" font-size="14.00">null_resource.bookmarks_update</text>
</g>
<!-- [root] null_resource.bookmarks_cleanup&#45;&gt;[root] null_resource.bookmarks_update -->
<g id="edge12" class="edge">
<title>[root] null_resource.bookmarks_cleanup&#45;&gt;[root] null_resource.bookmarks_update</title>
<path fill="none" stroke="black" d="M638.87,-359.7C634.15,-351.64 628.44,-341.89 623.22,-332.98"/>
<polygon fill="black" stroke="black" points="626.09,-330.96 618.02,-324.1 620.05,-334.5 626.09,-330.96"/>
</g>
<!-- [root] null_resource.bookmarks_update&#45;&gt;[root] local.bookmarks_service_url -->
<g id="edge13" class="edge">
<title>[root] null_resource.bookmarks_update&#45;&gt;[root] local.bookmarks_service_url</title>
<path fill="none" stroke="black" d="M509.47,-294.16C425.57,-284.59 301.58,-269.67 183.99,-252.11"/>
<polygon fill="black" stroke="black" points="184.5,-248.65 174.09,-250.62 183.46,-255.57 184.5,-248.65"/>
</g>
<!-- [root] null_resource.bookmarks_update&#45;&gt;[root] local.content_type -->
<g id="edge14" class="edge">
<title>[root] null_resource.bookmarks_update&#45;&gt;[root] local.content_type</title>
<path fill="none" stroke="black" d="M509.34,-288.76C455.38,-279.46 387.17,-267.05 317.84,-252.11"/>
<polygon fill="black" stroke="black" points="318.56,-248.69 308.05,-249.99 317.08,-255.53 318.56,-248.69"/>
</g>
<!-- [root] null_resource.bookmarks_update&#45;&gt;[root] local.update_payloads -->
<g id="edge15" class="edge">
<title>[root] null_resource.bookmarks_update&#45;&gt;[root] local.update_payloads</title>
<path fill="none" stroke="black" d="M686.33,-287.87C704.65,-280.03 722,-268.61 733,-252 746.17,-232.12 733.37,-206.66 719.52,-188.06"/>
<polygon fill="black" stroke="black" points="722.12,-185.72 713.17,-180.05 716.63,-190.06 722.12,-185.72"/>
</g>
<!-- [root] null_resource.bookmarks_update&#45;&gt;[root] local_file.zone_db -->
<g id="edge16" class="edge">
<title>[root] null_resource.bookmarks_update&#45;&gt;[root] local_file.zone_db</title>
<path fill="none" stroke="black" d="M679.79,-287.97C726.98,-276.77 788.35,-262.2 834.8,-251.18"/>
<polygon fill="black" stroke="black" points="835.85,-254.53 844.77,-248.82 834.23,-247.72 835.85,-254.53"/>
</g>
<!-- [root] provider.null -->
<g id="node13" class="node">
<title>[root] provider.null</title>
<polygon fill="none" stroke="black" points="405,-252 325.9,-234 405,-216 484.1,-234 405,-252"/>
<text text-anchor="middle" x="405" y="-230.3" font-family="Times,serif" font-size="14.00">provider.null</text>
</g>
<!-- [root] null_resource.bookmarks_update&#45;&gt;[root] provider.null -->
<g id="edge17" class="edge">
<title>[root] null_resource.bookmarks_update&#45;&gt;[root] provider.null</title>
<path fill="none" stroke="black" d="M558.6,-287.97C523.5,-275.86 477,-259.83 444.39,-248.58"/>
<polygon fill="black" stroke="black" points="445.34,-245.21 434.75,-245.26 443.06,-251.83 445.34,-245.21"/>
</g>
<!-- [root] provisioner.local&#45;exec -->
<g id="node16" class="node">
<title>[root] provisioner.local&#45;exec</title>
<ellipse fill="none" stroke="black" cx="613" cy="-234" rx="111.28" ry="18"/>
<text text-anchor="middle" x="613" y="-230.3" font-family="Times,serif" font-size="14.00">[root] provisioner.local&#45;exec</text>
</g>
<!-- [root] null_resource.bookmarks_update&#45;&gt;[root] provisioner.local&#45;exec -->
<g id="edge18" class="edge">
<title>[root] null_resource.bookmarks_update&#45;&gt;[root] provisioner.local&#45;exec</title>
<path fill="none" stroke="black" d="M609.24,-287.7C609.79,-279.98 610.45,-270.71 611.06,-262.11"/>
<polygon fill="black" stroke="black" points="614.56,-262.33 611.78,-252.1 607.57,-261.83 614.56,-262.33"/>
</g>
<!-- [root] meta.count&#45;boundary (EachMode fixup) -->
<g id="node15" class="node">
<title>[root] meta.count&#45;boundary (EachMode fixup)</title>
<ellipse fill="none" stroke="black" cx="350" cy="-450" rx="176.27" ry="18"/>
<text text-anchor="middle" x="350" y="-446.3" font-family="Times,serif" font-size="14.00">[root] meta.count&#45;boundary (EachMode fixup)</text>
</g>
<!-- [root] meta.count&#45;boundary (EachMode fixup)&#45;&gt;[root] null_resource.bookmarks_cleanup -->
<g id="edge10" class="edge">
<title>[root] meta.count&#45;boundary (EachMode fixup)&#45;&gt;[root] null_resource.bookmarks_cleanup</title>
<path fill="none" stroke="black" d="M417.1,-433.29C461.31,-422.94 519.49,-409.32 566.51,-398.31"/>
<polygon fill="black" stroke="black" points="567.43,-401.69 576.37,-396 565.84,-394.88 567.43,-401.69"/>
</g>
<!-- [root] provider.local (close) -->
<g id="node17" class="node">
<title>[root] provider.local (close)</title>
<ellipse fill="none" stroke="black" cx="885" cy="-378" rx="108.58" ry="18"/>
<text text-anchor="middle" x="885" y="-374.3" font-family="Times,serif" font-size="14.00">[root] provider.local (close)</text>
</g>
<!-- [root] provider.local (close)&#45;&gt;[root] local_file.zone_db -->
<g id="edge19" class="edge">
<title>[root] provider.local (close)&#45;&gt;[root] local_file.zone_db</title>
<path fill="none" stroke="black" d="M887.17,-359.87C890.24,-335.67 895.87,-291.21 899.53,-262.39"/>
<polygon fill="black" stroke="black" points="903.04,-262.55 900.82,-252.19 896.09,-261.67 903.04,-262.55"/>
</g>
<!-- [root] provider.null (close) -->
<g id="node18" class="node">
<title>[root] provider.null (close)</title>
<ellipse fill="none" stroke="black" cx="649" cy="-450" rx="104.78" ry="18"/>
<text text-anchor="middle" x="649" y="-446.3" font-family="Times,serif" font-size="14.00">[root] provider.null (close)</text>
</g>
<!-- [root] provider.null (close)&#45;&gt;[root] null_resource.bookmarks_cleanup -->
<g id="edge20" class="edge">
<title>[root] provider.null (close)&#45;&gt;[root] null_resource.bookmarks_cleanup</title>
<path fill="none" stroke="black" d="M649,-431.7C649,-423.98 649,-414.71 649,-406.11"/>
<polygon fill="black" stroke="black" points="652.5,-406.1 649,-396.1 645.5,-406.1 652.5,-406.1"/>
</g>
<!-- [root] provider.template (close) -->
<g id="node19" class="node">
<title>[root] provider.template (close)</title>
<ellipse fill="none" stroke="black" cx="1134" cy="-378" rx="122.38" ry="18"/>
<text text-anchor="middle" x="1134" y="-374.3" font-family="Times,serif" font-size="14.00">[root] provider.template (close)</text>
</g>
<!-- [root] provider.template (close)&#45;&gt;[root] data.template_file.zone_db_tpl -->
<g id="edge21" class="edge">
<title>[root] provider.template (close)&#45;&gt;[root] data.template_file.zone_db_tpl</title>
<path fill="none" stroke="black" d="M1131.44,-359.85C1125.9,-322.83 1112.79,-235.18 1106.1,-190.39"/>
<polygon fill="black" stroke="black" points="1109.52,-189.6 1104.58,-180.23 1102.59,-190.64 1109.52,-189.6"/>
</g>
<!-- [root] provisioner.local&#45;exec (close) -->
<g id="node20" class="node">
<title>[root] provisioner.local&#45;exec (close)</title>
<ellipse fill="none" stroke="black" cx="909" cy="-450" rx="137.58" ry="18"/>
<text text-anchor="middle" x="909" y="-446.3" font-family="Times,serif" font-size="14.00">[root] provisioner.local&#45;exec (close)</text>
</g>
<!-- [root] provisioner.local&#45;exec (close)&#45;&gt;[root] null_resource.bookmarks_cleanup -->
<g id="edge22" class="edge">
<title>[root] provisioner.local&#45;exec (close)&#45;&gt;[root] null_resource.bookmarks_cleanup</title>
<path fill="none" stroke="black" d="M851.62,-433.55C813.41,-423.26 762.87,-409.66 721.83,-398.61"/>
<polygon fill="black" stroke="black" points="722.72,-395.22 712.15,-396 720.9,-401.98 722.72,-395.22"/>
</g>
<!-- [root] root -->
<g id="node21" class="node">
<title>[root] root</title>
<ellipse fill="none" stroke="black" cx="909" cy="-522" rx="47.39" ry="18"/>
<text text-anchor="middle" x="909" y="-518.3" font-family="Times,serif" font-size="14.00">[root] root</text>
</g>
<!-- [root] root&#45;&gt;[root] meta.count&#45;boundary (EachMode fixup) -->
<g id="edge23" class="edge">
<title>[root] root&#45;&gt;[root] meta.count&#45;boundary (EachMode fixup)</title>
<path fill="none" stroke="black" d="M864.67,-515.45C779.52,-504.79 590.59,-481.13 466.86,-465.63"/>
<polygon fill="black" stroke="black" points="466.94,-462.12 456.59,-464.35 466.07,-469.06 466.94,-462.12"/>
</g>
<!-- [root] root&#45;&gt;[root] provider.local (close) -->
<g id="edge24" class="edge">
<title>[root] root&#45;&gt;[root] provider.local (close)</title>
<path fill="none" stroke="black" d="M955.54,-517.85C989.54,-512.83 1033.47,-500.08 1056,-468 1065.2,-454.91 1065.49,-444.88 1056,-432 1044.48,-416.37 1003.49,-403.38 964.53,-394.17"/>
<polygon fill="black" stroke="black" points="965.22,-390.73 954.69,-391.91 963.65,-397.56 965.22,-390.73"/>
</g>
<!-- [root] root&#45;&gt;[root] provider.null (close) -->
<g id="edge25" class="edge">
<title>[root] root&#45;&gt;[root] provider.null (close)</title>
<path fill="none" stroke="black" d="M871.47,-510.9C829.94,-499.72 762.31,-481.51 712.5,-468.1"/>
<polygon fill="black" stroke="black" points="713.35,-464.7 702.79,-465.48 711.53,-471.46 713.35,-464.7"/>
</g>
<!-- [root] root&#45;&gt;[root] provider.template (close) -->
<g id="edge26" class="edge">
<title>[root] root&#45;&gt;[root] provider.template (close)</title>
<path fill="none" stroke="black" d="M952.95,-515.01C988.48,-508.37 1038.28,-494.83 1074,-468 1095.64,-451.75 1112.04,-425.29 1122.18,-405.44"/>
<polygon fill="black" stroke="black" points="1125.4,-406.82 1126.65,-396.3 1119.11,-403.74 1125.4,-406.82"/>
</g>
<!-- [root] root&#45;&gt;[root] provisioner.local&#45;exec (close) -->
<g id="edge27" class="edge">
<title>[root] root&#45;&gt;[root] provisioner.local&#45;exec (close)</title>
<path fill="none" stroke="black" d="M909,-503.7C909,-495.98 909,-486.71 909,-478.11"/>
<polygon fill="black" stroke="black" points="912.5,-478.1 909,-468.1 905.5,-478.1 912.5,-478.1"/>
</g>
</g>
</svg>
